<?xml version="1.0" encoding="UTF-8" standalone="no"?><!DOCTYPE svg PUBLIC "-//W3C//DTD SVG 1.1//EN" "http://www.w3.org/Graphics/SVG/1.1/DTD/svg11.dtd"><svg width="100%" height="100%" viewBox="0 0 1867 2134" version="1.1" xmlns="http://www.w3.org/2000/svg" xmlns:xlink="http://www.w3.org/1999/xlink" xml:space="preserve" xmlns:serif="http://www.serif.com/" style="fill-rule:evenodd;clip-rule:evenodd;stroke-linejoin:round;stroke-miterlimit:2;"><path d="M793.75,278.75l92.5,-92.5c39.167,-39.167 102.5,-39.167 141.25,0l810,809.583c39.167,39.167 39.167,102.5 0,141.25l-810,810c-39.167,39.167 -102.5,39.167 -141.25,0l-92.5,-92.5c-39.583,-39.583 -38.75,-104.166 1.667,-142.916l502.083,-478.334l-1197.5,0c-55.417,0 -100,-44.583 -100,-100l0,-133.333c0,-55.417 44.583,-100 100,-100l1197.5,0l-502.083,-478.333c-40.834,-38.75 -41.667,-103.334 -1.667,-142.917Z" style="fill:#ff7b00;fill-rule:nonzero;"/></svg>