<?xml version="1.0" encoding="UTF-8" standalone="no"?><!DOCTYPE svg PUBLIC "-//W3C//DTD SVG 1.1//EN" "http://www.w3.org/Graphics/SVG/1.1/DTD/svg11.dtd"><svg width="100%" height="100%" viewBox="0 0 2667 2134" version="1.1" xmlns="http://www.w3.org/2000/svg" xmlns:xlink="http://www.w3.org/1999/xlink" xml:space="preserve" xmlns:serif="http://www.serif.com/" style="fill-rule:evenodd;clip-rule:evenodd;stroke-linejoin:round;stroke-miterlimit:2;"><path d="M2495.33,1019c105,-52.5 171.334,-159.833 171.334,-277.208l0,-31.834c0,-171.208 -138.75,-309.958 -309.959,-309.958c-133.416,0 -251.833,85.375 -294.041,211.917c-32,95.958 -48.334,188.083 -158.792,188.083l-1141.13,0c-114.083,0 -131.583,-106.417 -158.792,-188.083c-42.166,-126.542 -160.625,-211.917 -294,-211.917c-171.208,0 -309.958,138.75 -309.958,309.958l0,31.834c0,117.375 66.333,224.708 171.333,277.208c39.292,19.625 39.292,75.708 0,95.333c-105,52.5 -171.333,159.834 -171.333,277.209l0,31.833c0,171.208 138.75,309.958 309.917,309.958c133.416,0 251.833,-85.375 294.041,-211.916c32,-95.959 48.334,-188.084 158.792,-188.084l1141.13,0c114.083,0 131.583,106.417 158.792,188.084c42.208,126.541 160.666,211.916 294.041,211.916c171.167,0 309.917,-138.75 309.917,-309.958l0,-31.833c0,-117.417 -66.333,-224.709 -171.333,-277.209c-39.25,-19.625 -39.25,-75.708 0.041,-95.333Z" style="fill:#ff7b00;fill-rule:nonzero;"/></svg>