<?xml version="1.0" encoding="UTF-8" standalone="no"?><!DOCTYPE svg PUBLIC "-//W3C//DTD SVG 1.1//EN" "http://www.w3.org/Graphics/SVG/1.1/DTD/svg11.dtd"><svg width="100%" height="100%" viewBox="0 0 892 175" version="1.1" xmlns="http://www.w3.org/2000/svg" xmlns:xlink="http://www.w3.org/1999/xlink" xml:space="preserve" xmlns:serif="http://www.serif.com/" style="fill-rule:evenodd;clip-rule:evenodd;stroke-linejoin:round;stroke-miterlimit:2;"><rect id="Artboard1" x="0" y="0" width="891.667" height="175" style="fill:none;"/><text x="-9.982px" y="170.396px" style="font-family:'Baloo2-Bold', 'Baloo 2', cursive;font-weight:700;font-size:245.072px;">P<tspan x="124.661px 171.25px 217.839px 264.428px 311.017px 357.606px 404.195px 450.784px 497.373px 651.816px 770.851px " y="170.396px 170.396px 170.396px 170.396px 170.396px 170.396px 170.396px 170.396px 170.396px 170.396px 170.396px ">        DLE</tspan></text><path d="M224.726,86.135c-24.459,0 -59.125,38.334 -59.125,62.5c0,10.917 8.333,17.459 22.125,17.459c15.041,0 25,-7.875 37.041,-7.875c12.042,0 22.167,7.875 37.084,7.875c13.833,0 22.125,-6.542 22.125,-17.459c-0.042,-24.166 -34.75,-62.5 -59.25,-62.5Zm-45.375,-4.166c-3.209,-10.875 -13.084,-17.917 -22.084,-15.709c-9,2.209 -13.625,12.75 -10.416,23.625c3.208,10.875 13.083,17.917 22.041,15.709c8.959,-2.209 13.667,-12.709 10.459,-23.625Zm26.125,-6.5c9.5,-2.584 14.291,-15.667 10.625,-29.167c-3.667,-13.5 -14.334,-22.667 -23.875,-20.125c-9.542,2.542 -14.292,15.667 -10.667,29.167c3.625,13.5 14.375,22.708 23.917,20.166l0,-0.041Zm86.708,-9.209c-8.958,-2.208 -18.833,4.834 -22.042,15.709c-3.208,10.875 1.459,21.458 10.459,23.625c9,2.166 18.833,-4.834 22.041,-15.709c3.209,-10.875 -1.458,-21.458 -10.458,-23.625Zm-48.167,9.25c9.542,2.542 20.25,-6.416 23.875,-20.041c3.625,-13.625 -1.125,-26.75 -10.666,-29.167c-9.542,-2.417 -20.209,6.417 -23.875,20.042c-3.667,13.625 1.125,26.583 10.666,29.166Z" style="fill-rule:nonzero;"/><path d="M408.091,85.987c-24.5,0 -59.208,38.5 -59.208,62.792c0,10.958 8.333,17.5 22.125,17.5c15.042,0 25,-7.875 37.083,-7.875c12.084,0 22.125,7.875 37.042,7.875c13.875,0 22.125,-6.542 22.125,-17.5c-0.083,-24.375 -34.708,-62.792 -59.167,-62.792Zm-45.416,-4.166c-3.209,-10.875 -13.084,-17.917 -22.042,-15.709c-8.958,2.209 -13.667,12.75 -10.458,23.625c3.208,10.875 13.083,18 22.041,15.917c8.959,-2.083 13.667,-12.75 10.459,-23.625l0,-0.208Zm26.125,-6.542c9.541,-2.542 14.291,-15.667 10.666,-29.167c-3.625,-13.5 -14.375,-22.5 -23.958,-19.916c-9.583,2.583 -14.333,15.666 -10.667,29.166c3.667,13.5 14.417,22.709 23.959,20.125l0,-0.208Zm86.708,-8.958c-9,-2.209 -18.875,4.833 -22.083,15.708c-3.209,10.875 1.458,21.458 10.458,23.625c9,2.167 18.833,-4.833 22.042,-15.708c3.208,-10.875 -1.459,-21.459 -10.417,-23.625Zm-48.208,9.166c9.541,2.584 20.25,-6.375 23.875,-20c3.625,-13.625 -1.084,-26.75 -10.625,-29.166c-9.542,-2.417 -20.209,6.416 -23.834,19.916c-3.625,13.5 1.125,26.709 10.625,29.25l-0.041,0Z" style="fill-rule:nonzero;"/></svg>