<?xml version="1.0" encoding="UTF-8" standalone="no"?><!DOCTYPE svg PUBLIC "-//W3C//DTD SVG 1.1//EN" "http://www.w3.org/Graphics/SVG/1.1/DTD/svg11.dtd"><svg width="100%" height="100%" viewBox="0 0 2400 2134" version="1.1" xmlns="http://www.w3.org/2000/svg" xmlns:xlink="http://www.w3.org/1999/xlink" xml:space="preserve" xmlns:serif="http://www.serif.com/" style="fill-rule:evenodd;clip-rule:evenodd;stroke-linejoin:round;stroke-miterlimit:2;"><path d="M1241.92,933.333l624.75,223.125l0,910.209c0,36.572 -30.095,66.666 -66.667,66.666l-266.667,0c-36.572,0 -66.666,-30.094 -66.666,-66.666l0,-466.667l-666.667,0l0,466.667c0,36.572 -30.094,66.666 -66.667,66.666l-266.666,0c-36.573,0 -66.667,-30.094 -66.667,-66.666l0,-891.292c-154.833,-55.208 -266.667,-201.792 -266.667,-375.375c0,-73.145 60.189,-133.333 133.334,-133.333c73.144,0 133.333,60.188 133.333,133.333c0.137,73.093 60.241,133.197 133.333,133.333l708.584,0Zm1024.75,-466.666l0,133.333c0,146.289 -120.378,266.667 -266.667,266.667l-133.333,0l0,148.25l-533.334,-190.459l0,-624.458c0,-59.375 71.75,-89.125 113.792,-47.125l113.667,113.792l223.458,0c45.458,0 98.958,33 119.25,73.708l29.833,59.625l266.667,0c36.572,0 66.667,30.094 66.667,66.667Zm-466.667,0c0,-36.573 -30.094,-66.667 -66.667,-66.667c-36.572,0 -66.666,30.094 -66.666,66.667c0,36.572 30.094,66.666 66.666,66.666c36.573,0 66.667,-30.094 66.667,-66.666Z" style="fill:#ff7b00;fill-rule:nonzero;"/></svg>