<svg id="Layer_1" data-name="Layer 1" xmlns="http://www.w3.org/2000/svg" viewBox="0 0 45 45.89"><path d="M22.5,18.05c-7,0-16.87,11.54-16.87,18.82,0,3.28,2.35,5.24,6.3,5.24,4.29,0,7.13-2.36,10.57-2.36s6.31,2.36,10.57,2.36c4,0,6.3-2,6.3-5.24C39.37,29.59,29.48,18.05,22.5,18.05ZM9.56,16.86c-.92-3.25-3.73-5.36-6.29-4.71s-3.9,3.83-3,7.08S4,24.6,6.58,23.94s3.89-3.82,3-7.08ZM17,14.91c2.72-.77,4.08-4.69,3-8.78S16-.63,13.23.13s-4.08,4.69-3,8.78S14.28,15.68,17,14.91Zm24.73-2.76c-2.56-.65-5.37,1.46-6.29,4.71s.42,6.43,3,7.08,5.37-1.45,6.29-4.71-.42-6.42-3-7.08ZM28,14.91c2.72.76,5.76-1.92,6.8-6s-.31-8-3-8.78S26,2.05,25,6.13,25.28,14.14,28,14.91Z"/></svg>