<?xml version="1.0" encoding="UTF-8" standalone="no"?><!DOCTYPE svg PUBLIC "-//W3C//DTD SVG 1.1//EN" "http://www.w3.org/Graphics/SVG/1.1/DTD/svg11.dtd"><svg width="100%" height="100%" viewBox="0 0 8000 4500" version="1.1" xmlns="http://www.w3.org/2000/svg" xmlns:xlink="http://www.w3.org/1999/xlink" xml:space="preserve" xmlns:serif="http://www.serif.com/" style="fill-rule:evenodd;clip-rule:evenodd;stroke-linejoin:round;stroke-miterlimit:2;"><rect x="-2.083" y="0.293" width="8002.08" height="4499.71" style="fill:#45b39d;"/><g><rect id="Artboard1" x="2867.48" y="2034.52" width="2195.88" height="430.967" style="fill:none;"/><text x="2842.89px" y="2454.14px" style="font-family:'Baloo2-Bold', 'Baloo 2', cursive;font-weight:700;font-size:603.529px;fill:#fff;">P</text><text x="4117.72px" y="2456.43px" style="font-family:'Baloo2-Bold', 'Baloo 2', cursive;font-weight:700;font-size:603.529px;fill:#fff;">DLE</text><path d="M3438.55,2247.09c-60.235,0 -145.605,94.404 -145.605,153.917c-0,26.885 20.521,42.996 54.486,42.996c37.041,-0 61.567,-19.394 91.22,-19.394c29.655,-0 54.59,19.394 91.325,19.394c34.066,-0 54.487,-16.111 54.487,-42.996c-0.104,-59.513 -85.578,-153.917 -145.913,-153.917Zm-111.744,-10.259c-7.903,-26.781 -32.221,-44.124 -54.385,-38.686c-22.164,5.44 -33.554,31.399 -25.651,58.18c7.9,26.782 32.218,44.124 54.279,38.687c22.063,-5.441 33.657,-31.299 25.757,-58.181Zm64.337,-16.007c23.396,-6.364 35.194,-38.583 26.166,-71.829c-9.03,-33.246 -35.3,-55.821 -58.796,-49.562c-23.499,6.261 -35.197,38.583 -26.269,71.83c8.927,33.246 35.401,55.921 58.899,49.662l0,-0.101Zm213.533,-22.679c-22.06,-5.438 -46.379,11.905 -54.282,38.686c-7.9,26.782 3.593,52.843 25.757,58.181c22.164,5.334 46.38,-11.905 54.28,-38.687c7.903,-26.781 -3.591,-52.844 -25.755,-58.18Zm-118.619,22.78c23.499,6.259 49.869,-15.801 58.796,-49.355c8.927,-33.554 -2.77,-65.876 -26.267,-71.829c-23.498,-5.952 -49.768,15.804 -58.796,49.357c-9.03,33.554 2.771,65.465 26.267,71.827Z" style="fill:#fff;fill-rule:nonzero;"/><path d="M3891.76,2247.1c-60.336,-0 -145.81,94.813 -145.81,154.636c-0,26.986 20.521,43.096 54.486,43.096c37.044,0 61.567,-19.393 91.324,-19.393c29.758,0 54.486,19.393 91.221,19.393c34.17,0 54.487,-16.11 54.487,-43.096c-0.204,-60.028 -85.474,-154.636 -145.708,-154.636Zm-111.845,-10.259c-7.903,-26.782 -32.221,-44.124 -54.282,-38.686c-22.061,5.44 -33.657,31.399 -25.755,58.18c7.9,26.782 32.219,44.328 54.28,39.198c22.063,-5.129 33.657,-31.399 25.757,-58.18l-0,-0.512Zm64.337,-16.111c23.497,-6.26 35.194,-38.583 26.267,-71.829c-8.927,-33.246 -35.401,-55.41 -59.001,-49.046c-23.599,6.361 -35.297,38.58 -26.269,71.826c9.03,33.246 35.504,55.925 59.003,49.561l-0,-0.512Zm213.533,-22.061c-22.164,-5.44 -46.483,11.902 -54.383,38.684c-7.903,26.781 3.59,52.844 25.754,58.18c22.164,5.337 46.38,-11.902 54.283,-38.683c7.9,-26.782 -3.593,-52.846 -25.654,-58.181Zm-118.72,22.573c23.496,6.364 49.869,-15.699 58.796,-49.253c8.927,-33.554 -2.669,-65.876 -26.166,-71.827c-23.499,-5.952 -49.768,15.801 -58.695,49.047c-8.927,33.246 2.771,65.775 26.166,72.033l-0.101,-0Z" style="fill:#fff;fill-rule:nonzero;"/></g><path d="M528.041,385.626c-65.427,-42.83 -225.732,-0.383 -268.365,64.743c-19.202,29.331 -8.584,61.315 28.435,85.548c40.239,26.342 80.609,22.658 112.882,43.785c32.553,21.31 45.399,59.831 85.285,85.941c37.018,24.234 70.579,21.171 89.78,-8.161c42.634,-65.126 17.409,-229.026 -48.017,-271.856Zm-114.408,-90.035c10.495,-34.73 -3.557,-70.871 -31.379,-80.728c-27.822,-9.856 -58.878,10.31 -69.373,45.041c-10.495,34.731 3.557,70.871 31.379,80.728c27.821,9.856 58.878,-10.31 69.373,-45.041Zm81.234,28.23c29.971,9.847 65.722,-16.935 79.856,-59.813c14.134,-42.878 1.29,-85.611 -28.68,-95.458c-29.97,-9.846 -65.722,16.935 -79.856,59.813c-14.134,42.879 -1.287,85.626 28.68,95.458Zm247.983,127.112c-20.163,-21.556 -58.899,-19.972 -86.54,3.535c-27.632,23.512 -33.691,60.042 -13.528,81.598c20.163,21.555 58.899,19.971 86.54,-3.535c27.632,-23.513 33.691,-60.043 13.528,-81.598Zm-144.895,-59.627c21.013,23.529 65.316,18.205 98.96,-11.901c33.644,-30.106 43.882,-73.577 22.874,-97.115c-21.007,-23.537 -65.316,-18.205 -98.96,11.901c-33.644,30.106 -43.887,73.586 -22.874,97.115Z" style="fill:#0b5143;fill-rule:nonzero;"/><path d="M1599.91,1800.65c78.196,-0.736 187.904,-125.088 187.171,-202.924c-0.33,-35.056 -26.927,-55.751 -71.17,-55.334c-48.093,0.452 -79.613,25.943 -118.184,26.306c-38.906,0.366 -70.988,-24.526 -118.658,-24.078c-44.243,0.417 -70.446,21.608 -70.116,56.664c0.732,77.837 112.761,200.102 190.957,199.366Zm145.147,11.302c10.568,34.708 42.331,56.952 70.94,49.691c28.609,-7.261 43.228,-41.283 32.659,-75.991c-10.568,-34.709 -42.33,-56.952 -70.939,-49.691c-28.609,7.261 -43.229,41.282 -32.66,75.991Zm-83.228,21.658c-30.39,8.463 -45.238,50.593 -33.169,94.097c12.069,43.505 46.489,71.901 76.879,63.438c30.39,-8.463 45.239,-50.593 33.169,-94.098c-12.069,-43.504 -46.499,-71.91 -76.879,-63.437Zm-276.81,32.078c28.74,6.722 60.068,-16.116 69.992,-51.017c9.913,-34.901 -5.344,-68.641 -34.084,-75.363c-28.741,-6.721 -60.069,16.116 -69.992,51.018c-9.914,34.901 5.343,68.641 34.084,75.362Zm153.603,-30.919c-30.544,-7.89 -64.423,21.15 -75.672,64.873c-11.248,43.724 4.39,85.557 34.934,93.457c30.544,7.9 64.423,-21.149 75.672,-64.873c11.248,-43.724 -4.39,-85.567 -34.934,-93.457Z" style="fill:#0b5143;fill-rule:nonzero;"/><path d="M4397.17,484.682c-54.075,56.49 -41.664,221.854 14.566,275.68c25.325,24.242 58.711,19.653 89.306,-12.309c33.258,-34.743 37.02,-75.105 63.693,-102.97c26.904,-28.106 67.125,-33.69 100.09,-68.127c30.595,-31.962 33.722,-65.516 8.397,-89.759c-56.23,-53.826 -221.978,-59.004 -276.052,-2.515Zm-109.441,96.011c-32.226,-16.67 -70.327,-9.465 -85.106,16.084c-14.779,25.55 -0.633,59.771 31.593,76.441c32.225,16.67 70.326,9.465 85.105,-16.084c14.779,-25.55 0.633,-59.771 -31.592,-76.441Zm42.611,-74.701c15.162,-27.664 -4.628,-67.711 -44.198,-89.449c-39.57,-21.737 -83.931,-16.926 -99.093,10.738c-15.162,27.663 4.628,67.71 44.198,89.448c39.57,21.738 83.945,16.927 99.093,-10.737Zm170.323,-220.551c-24.879,15.88 -30.407,54.252 -12.352,85.726c18.061,31.467 52.867,44.105 77.747,28.225c24.88,-15.881 30.407,-54.253 12.353,-85.727c-18.062,-31.467 -52.868,-44.105 -77.748,-28.224Zm-85.122,131.545c26.976,-16.355 29.845,-60.885 6.4,-99.468c-23.445,-38.583 -64.31,-56.599 -91.293,-40.25c-26.983,16.348 -29.845,60.885 -6.4,99.467c23.445,38.583 64.318,56.606 91.293,40.251Z" style="fill:#0b5143;fill-rule:nonzero;"/><path d="M4385.44,3088.7c-78.2,-0 -189.073,123.314 -189.073,201.154c0,35.057 26.401,56.001 70.646,56.001c48.096,0 79.854,-25.193 118.427,-25.193c38.907,0 70.754,25.193 118.426,25.193c44.245,0 70.646,-20.944 70.646,-56.001c0,-77.84 -110.873,-201.154 -189.072,-201.154Zm-145.035,-12.667c-10.241,-34.807 -41.793,-57.348 -70.469,-50.356c-28.676,6.991 -43.614,40.873 -33.373,75.68c10.241,34.806 41.793,57.347 70.469,50.356c28.676,-6.991 43.615,-40.874 33.373,-75.68Zm83.428,-20.874c30.469,-8.177 45.713,-50.165 34.053,-93.781c-11.659,-43.616 -45.81,-72.335 -76.279,-64.159c-30.468,8.177 -45.712,50.166 -34.052,93.782c11.659,43.616 45.82,72.345 76.278,64.158Zm277.1,-29.472c-28.676,-6.992 -60.218,15.549 -70.469,50.356c-10.241,34.806 4.697,68.689 33.373,75.68c28.676,6.991 60.218,-15.55 70.469,-50.356c10.242,-34.807 -4.697,-68.689 -33.373,-75.68Zm-153.887,29.472c30.468,8.177 64.619,-20.542 76.279,-64.158c11.659,-43.616 -3.585,-85.595 -34.053,-93.782c-30.468,-8.186 -64.62,20.543 -76.279,64.159c-11.66,43.616 3.584,85.604 34.053,93.781Z" style="fill:#0b5143;fill-rule:nonzero;"/><path d="M698.122,4124.97c-0.918,78.194 121.086,190.508 198.92,191.422c35.055,0.411 56.308,-25.742 56.827,-69.984c0.565,-48.092 -24.253,-80.144 -23.801,-118.714c0.457,-38.905 26.023,-70.454 26.582,-118.123c0.52,-44.241 -20.113,-70.887 -55.168,-71.298c-77.835,-0.914 -202.442,108.504 -203.36,186.697Zm-14.369,144.876c-34.924,9.832 -57.834,41.117 -51.18,69.873c6.654,28.756 40.359,44.092 75.283,34.259c34.924,-9.832 57.834,-41.116 51.18,-69.872c-6.654,-28.756 -40.359,-44.092 -75.283,-34.26Zm-19.893,-83.667c-7.818,-30.563 -49.625,-46.298 -93.375,-35.152c-43.75,11.147 -72.868,44.958 -65.049,75.521c7.818,30.562 49.625,46.298 93.375,35.151c43.75,-11.147 72.878,-44.968 65.049,-75.52Zm-26.217,-277.427c-7.327,28.592 14.842,60.396 49.526,71.055c34.683,10.65 68.739,-3.89 76.066,-32.482c7.328,-28.592 -14.841,-60.396 -49.525,-71.055c-34.684,-10.65 -68.739,3.89 -76.067,32.482Zm27.664,154.223c8.534,-30.37 -19.782,-64.856 -63.258,-77.027c-43.477,-12.171 -85.631,2.579 -94.175,32.949c-8.544,30.37 19.782,64.856 63.258,77.027c43.476,12.171 85.641,-2.579 94.175,-32.949Z" style="fill:#0b5143;fill-rule:nonzero;"/><path d="M6061.78,1601.59c3.119,-78.137 -115.675,-193.841 -193.453,-196.945c-35.03,-1.398 -57.01,24.146 -58.775,68.356c-1.918,48.057 21.988,80.795 20.45,119.337c-1.552,38.877 -27.995,69.694 -29.897,117.327c-1.764,44.21 18.11,71.426 53.14,72.824c77.778,3.105 205.416,-102.762 208.535,-180.899Zm18.441,-144.414c35.187,-8.845 58.969,-39.472 53.127,-68.404c-5.842,-28.932 -39.102,-45.211 -74.289,-36.366c-35.187,8.846 -58.969,39.473 -53.127,68.405c5.842,28.932 39.102,45.21 74.289,36.365Zm17.53,84.194c6.955,30.771 48.302,47.677 92.348,37.766c44.047,-9.91 74.105,-42.889 67.15,-73.659c-6.955,-30.77 -48.302,-47.677 -92.349,-37.766c-44.046,9.911 -74.115,42.899 -67.149,73.659Zm18.397,278.055c8.13,-28.374 -13.136,-60.79 -47.506,-72.421c-34.37,-11.622 -68.821,1.954 -76.951,30.328c-8.129,28.374 13.136,60.79 47.506,72.421c34.37,11.622 68.821,-1.954 76.951,-30.328Zm-23.311,-154.94c-9.386,30.118 17.948,65.387 61.065,78.777c43.116,13.39 85.669,-0.168 95.065,-30.285c9.395,-30.118 -17.949,-65.388 -61.065,-78.778c-43.117,-13.389 -85.68,0.168 -95.065,30.286Z" style="fill:#0b5143;fill-rule:nonzero;"/><path d="M7657.8,3920.82c52.91,57.581 218.729,55.786 276.046,3.119c25.814,-23.72 23.373,-57.331 -6.563,-89.911c-32.542,-35.414 -72.581,-41.753 -98.68,-70.156c-26.325,-28.649 -29.322,-69.145 -61.577,-104.248c-29.937,-32.58 -63.222,-37.849 -89.036,-14.129c-57.317,52.667 -73.101,217.744 -20.19,275.325Zm88.804,115.365c-18.7,31.092 -13.95,69.576 10.601,85.961c24.55,16.385 59.607,4.46 78.307,-26.632c18.7,-31.091 13.95,-69.575 -10.601,-85.96c-24.55,-16.385 -59.607,-4.46 -78.307,26.631Zm-71.818,-47.308c-26.636,-16.902 -67.869,0.283 -92.096,38.379c-24.227,38.096 -22.267,82.675 4.369,99.578c26.636,16.902 67.868,-0.283 92.095,-38.379c24.228,-38.097 22.268,-82.689 -4.368,-99.578Zm-209.19,-184.099c14.254,25.846 52.193,33.82 84.759,17.818c32.559,-16.009 47.4,-49.934 33.146,-75.78c-14.255,-25.846 -52.194,-33.819 -84.76,-17.818c-32.559,16.01 -47.4,49.935 -33.145,75.78Zm125.823,93.373c-14.594,-27.968 -58.848,-33.683 -98.854,-12.757c-40.005,20.925 -60.601,60.553 -46.014,88.527c14.587,27.975 58.848,33.683 98.853,12.758c40.005,-20.926 60.609,-60.561 46.015,-88.528Z" style="fill:#0b5143;fill-rule:nonzero;"/><path d="M7831.64,132.089c58.864,-51.48 61.143,-217.293 9.9,-275.887c-23.079,-26.389 -56.74,-24.774 -90.045,4.353c-36.203,31.662 -43.524,71.533 -72.559,96.926c-29.288,25.613 -69.845,27.615 -105.73,58.998c-33.305,29.127 -39.39,62.273 -16.312,88.662c51.244,58.593 215.882,78.428 274.746,26.948Zm117.512,-85.944c30.623,19.459 69.213,15.656 86.196,-8.485c16.983,-24.141 5.922,-59.48 -24.7,-78.938c-30.623,-19.458 -69.212,-15.655 -86.196,8.486c-16.983,24.14 -5.922,59.479 24.7,78.937Zm-49.058,70.635c-17.552,26.213 -1.385,67.855 36.105,93.011c37.489,25.156 82.103,24.292 99.655,-1.921c17.551,-26.213 1.384,-67.855 -36.105,-93.011c-37.49,-25.156 -82.117,-24.293 -99.655,1.921Zm-189.182,204.604c26.188,-13.615 35.091,-51.347 19.894,-84.296c-15.204,-32.942 -48.754,-48.612 -74.943,-34.997c-26.188,13.615 -35.091,51.347 -19.894,84.296c15.204,32.942 48.754,48.612 74.943,34.997Zm96.435,-123.491c-28.318,13.902 -35.119,58.003 -15.182,98.51c19.936,40.507 59.046,62.071 87.371,48.176c28.324,-13.895 35.118,-58.003 15.182,-98.511c-19.937,-40.507 -59.053,-62.078 -87.371,-48.175Z" style="fill:#0b5143;fill-rule:nonzero;"/><path d="M2652.09,541.9l224.519,83.724l0,341.542c0,13.723 -10.815,25.016 -23.958,25.016l-95.833,-0c-13.143,-0 -23.959,-11.293 -23.959,-25.016l0,-175.11l-239.583,0l0,175.11c0,13.723 -10.815,25.016 -23.958,25.016l-95.834,-0c-13.143,-0 -23.958,-11.293 -23.958,-25.016l0,-334.444c-55.643,-20.716 -95.833,-75.719 -95.833,-140.854c-0,-27.446 21.63,-50.031 47.916,-50.031c26.287,-0 47.917,22.585 47.917,50.031c0.049,27.427 21.649,49.98 47.917,50.032l254.647,-0Zm368.269,-175.11l0,50.031c0,54.893 -43.26,100.063 -95.833,100.063l-47.917,-0l0,55.629l-191.666,-71.467l-0,-234.319c-0,-22.28 25.785,-33.443 40.894,-17.683l40.849,42.699l80.305,-0c16.337,-0 35.563,12.382 42.855,27.658l10.722,22.373l95.833,0c13.143,0 23.958,11.293 23.958,25.016Zm-167.708,-0c0,-13.723 -10.815,-25.016 -23.958,-25.016c-13.143,0 -23.959,11.293 -23.959,25.016c0,13.723 10.816,25.015 23.959,25.015c13.143,0 23.958,-11.292 23.958,-25.015Z" style="fill:#0b5143;fill-rule:nonzero;"/><path d="M125.572,2605.25l152.754,184.621l-170.487,295.948c-6.85,11.891 -21.858,16.277 -33.247,9.717l-83.04,-47.837c-11.388,-6.561 -15.123,-21.744 -8.273,-33.636l87.409,-151.733l-207.6,-119.593l-87.409,151.734c-6.85,11.891 -21.858,16.278 -33.247,9.717l-83.04,-47.837c-11.389,-6.561 -15.123,-21.744 -8.273,-33.635l166.944,-289.798c-37.875,-45.726 -45.244,-113.448 -12.73,-169.888c13.7,-23.782 43.716,-32.555 66.494,-19.434c22.777,13.122 30.246,43.489 16.546,67.271c-13.649,23.791 -6.19,54.115 16.546,67.271l220.653,127.112Zm406.516,32.095l-24.974,43.352c-27.401,47.565 -87.434,65.111 -132.988,38.868l-41.52,-23.918l-27.768,48.202l-130.406,-157.6l116.964,-203.038c11.121,-19.306 39.037,-16.108 44.262,5.09l14.082,57.389l69.585,40.086c14.155,8.155 24.634,28.482 23.328,45.358l-1.878,24.739l83.04,47.836c11.389,6.561 15.123,21.745 8.273,33.636Zm-145.32,-83.715c6.85,-11.891 3.116,-27.075 -8.273,-33.635c-11.388,-6.561 -26.397,-2.174 -33.247,9.717c-6.85,11.891 -3.116,27.075 8.273,33.635c11.389,6.561 26.397,2.174 33.247,-9.717Z" style="fill:#0b5143;fill-rule:nonzero;"/><path d="M2764.86,3716.62l230.051,-67.048l204.111,273.842c8.201,11.003 6.278,26.521 -4.26,34.375l-76.837,57.272c-10.538,7.854 -25.958,5.264 -34.159,-5.739l-104.649,-140.4l-192.093,143.179l104.648,140.4c8.202,11.003 6.279,26.52 -4.259,34.375l-76.838,57.271c-10.538,7.855 -25.958,5.264 -34.159,-5.739l-199.869,-268.151c-56.994,16.643 -122.089,-3.439 -161.014,-55.663c-16.403,-22.006 -12.557,-53.041 8.519,-68.75c21.076,-15.709 51.916,-10.527 68.318,11.479c16.43,21.961 47.227,27.135 68.318,11.478l204.172,-152.181Zm190.623,-360.484l29.9,40.114c32.805,44.012 25.113,106.082 -17.039,137.5l-38.418,28.636l33.244,44.602l-196.384,57.243l-140.033,-187.873c-13.315,-17.863 0.688,-42.224 22.22,-38.617l58.27,9.823l64.387,-47.992c13.098,-9.763 35.914,-11.324 50.89,-3.435l21.967,11.531l76.837,-57.271c10.538,-7.855 25.958,-5.264 34.159,5.739Zm-134.465,100.225c-8.202,-11.003 -23.622,-13.594 -34.159,-5.739c-10.538,7.855 -12.461,23.372 -4.26,34.375c8.201,11.003 23.621,13.594 34.159,5.739c10.538,-7.854 12.461,-23.372 4.26,-34.375Z" style="fill:#0b5143;fill-rule:nonzero;"/><path d="M6194.12,347.808l-101.66,-216.989l239.16,-243.83c9.61,-9.797 25.238,-10.286 34.622,-1.082l68.416,67.106c9.383,9.203 9.197,24.838 -0.413,34.635l-122.618,125.013l171.041,167.765l122.618,-125.013c9.61,-9.797 25.238,-10.285 34.621,-1.082l68.416,67.106c9.383,9.203 9.197,24.838 -0.412,34.635l-234.191,238.763c25.218,53.753 15.395,121.163 -30.215,167.664c-19.219,19.594 -50.475,20.571 -69.242,2.164c-18.766,-18.406 -18.393,-49.676 0.826,-69.271c19.17,-19.614 19.543,-50.84 0.826,-69.27l-181.795,-178.314Zm-385.53,-132.863l35.034,-35.718c38.438,-39.189 100.952,-41.143 138.484,-4.33l34.208,33.553l38.953,-39.714l86.789,185.233l-164.078,167.283c-15.602,15.905 -41.827,5.819 -41.577,-16.012l0.736,-59.087l-57.33,-56.232c-11.663,-11.44 -16.718,-33.743 -11.228,-49.755l8.012,-23.48l-68.416,-67.106c-9.383,-9.203 -9.197,-24.838 0.413,-34.635Zm119.729,117.435c-9.61,9.797 -9.796,25.432 -0.413,34.636c9.383,9.203 25.011,8.714 34.621,-1.083c9.609,-9.797 9.796,-25.432 0.413,-34.635c-9.383,-9.203 -25.012,-8.715 -34.621,1.082Z" style="fill:#0b5143;fill-rule:nonzero;"/><path d="M7600.99,2594.88l-225.577,-80.833l-4.388,-341.514c-0.176,-13.722 10.493,-25.153 23.635,-25.321l95.825,-1.232c13.142,-0.169 24.102,10.984 24.278,24.706l2.25,175.096l239.563,-3.079l-2.249,-175.095c-0.177,-13.722 10.493,-25.153 23.635,-25.321l95.825,-1.232c13.142,-0.168 24.101,10.984 24.278,24.706l4.297,334.417c55.904,19.999 96.798,74.482 97.635,139.611c0.352,27.444 -20.986,50.305 -47.27,50.643c-26.284,0.337 -48.203,-21.968 -48.556,-49.412c-0.401,-27.424 -22.289,-49.698 -48.555,-49.412l-254.626,3.272Zm-365.99,179.827l-0.643,-50.027c-0.705,-54.889 41.972,-100.611 94.54,-101.286l47.913,-0.616l-0.715,-55.624l192.569,68.998l3.011,234.3c0.286,22.278 -25.354,33.771 -40.663,18.207l-41.395,-42.17l-80.298,1.031c-16.336,0.21 -35.72,-11.925 -43.208,-27.105l-11.008,-22.234l-95.825,1.232c-13.142,0.168 -24.101,-10.984 -24.278,-24.706Zm167.695,-2.155c0.176,13.722 11.135,24.875 24.278,24.706c13.142,-0.169 23.811,-11.599 23.634,-25.321c-0.176,-13.723 -11.135,-24.875 -24.277,-24.706c-13.142,0.169 -23.812,11.599 -23.635,25.321Z" style="fill:#0b5143;fill-rule:nonzero;"/><path d="M5955.4,4060.22l-227.454,75.387l-213.956,-266.222c-8.596,-10.697 -7.24,-26.274 3.004,-34.507l74.7,-60.034c10.244,-8.233 25.748,-6.206 34.345,4.49l109.696,136.493l186.748,-150.084l-109.696,-136.493c-8.597,-10.697 -7.24,-26.274 3.004,-34.507l74.699,-60.034c10.245,-8.233 25.749,-6.206 34.346,4.49l209.509,260.69c56.35,-18.71 122.133,-1.013 162.936,49.757c17.193,21.394 14.481,52.549 -6.008,69.015c-20.49,16.467 -51.498,12.413 -68.692,-8.981c-17.219,-21.348 -48.184,-25.396 -68.691,-8.981l-198.49,159.521Zm-177.359,367.191l-31.342,-38.998c-34.387,-42.787 -28.963,-105.096 12.016,-138.029l37.35,-30.017l-34.848,-43.361l194.168,-64.361l146.786,182.644c13.957,17.366 0.851,42.221 -20.798,39.401l-58.589,-7.693l-62.595,50.307c-12.734,10.233 -35.478,12.626 -50.731,5.287l-22.372,-10.723l-74.7,60.034c-10.244,8.233 -25.749,6.206 -34.345,-4.491Zm130.723,-105.059c8.597,10.697 24.101,12.724 34.346,4.491c10.245,-8.234 11.601,-23.811 3.004,-34.508c-8.597,-10.696 -24.101,-12.724 -34.346,-4.49c-10.244,8.233 -11.6,23.81 -3.004,34.507Z" style="fill:#0b5143;fill-rule:nonzero;"/><path d="M4132.82,1532.85c23.297,-10.5 38.014,-31.967 38.014,-55.442l0,-6.366c0,-34.242 -30.785,-61.992 -68.772,-61.992c-29.601,0 -55.875,17.075 -65.24,42.383c-7.1,19.192 -10.724,37.617 -35.232,37.617l-253.187,0c-25.312,0 -29.195,-21.283 -35.232,-37.617c-9.356,-25.308 -35.639,-42.383 -65.231,-42.383c-37.987,0 -68.772,27.75 -68.772,61.992l-0,6.366c-0,23.475 14.717,44.942 38.014,55.442c8.718,3.925 8.718,15.142 0,19.067c-23.297,10.5 -38.014,31.966 -38.014,55.441l-0,6.367c-0,34.242 30.785,61.992 68.762,61.992c29.602,-0 55.876,-17.075 65.241,-42.384c7.1,-19.191 10.724,-37.616 35.232,-37.616l253.187,-0c25.312,-0 29.195,21.283 35.232,37.616c9.365,25.309 35.648,42.384 65.24,42.384c37.978,-0 68.763,-27.75 68.763,-61.992l0,-6.367c0,-23.483 -14.718,-44.941 -38.014,-55.441c-8.709,-3.925 -8.709,-15.142 0.009,-19.067Z" style="fill:#0b5143;fill-rule:nonzero;"/><path d="M121.226,1118.74c-12.307,-22.395 -34.869,-35.371 -58.271,-33.517l-6.346,0.503c-34.135,2.704 -59.367,35.585 -56.367,73.453c2.338,29.509 21.435,54.352 47.404,61.689c19.692,5.562 38.346,7.72 40.281,32.151l19.997,252.396c1.999,25.233 -18.912,30.785 -34.717,38.093c-24.49,11.325 -39.436,38.875 -37.099,68.375c3,37.868 33.095,66.365 67.229,63.661l6.347,-0.503c23.402,-1.854 43.639,-18.221 52.266,-42.274c3.224,-9.001 14.406,-9.887 19.007,-1.506c12.307,22.395 34.869,35.371 58.271,33.517l6.347,-0.503c34.135,-2.704 59.367,-35.585 56.367,-73.444c-2.338,-29.509 -21.434,-54.352 -47.403,-61.689c-19.693,-5.562 -38.346,-7.72 -40.282,-32.151l-19.996,-252.396c-1.999,-25.233 18.911,-30.785 34.716,-38.093c24.49,-11.335 39.436,-38.884 37.099,-68.384c-3,-37.859 -33.094,-66.356 -67.229,-63.652l-6.347,0.503c-23.41,1.854 -43.639,18.221 -52.266,42.274c-3.225,8.992 -14.407,9.878 -19.008,1.497Z" style="fill:#0b5143;fill-rule:nonzero;"/><path d="M1537.23,2899.3c-25.022,-5.185 -49.542,3.544 -63.33,22.544l-3.739,5.152c-20.112,27.714 -11.495,68.254 19.249,90.565c23.958,17.387 55.252,18.999 77.696,4.016c17.018,-11.362 30.773,-24.146 50.608,-9.751l204.914,148.706c20.487,14.867 11.129,34.373 6.421,51.138c-7.292,25.978 3.951,55.235 27.901,72.616c30.744,22.311 71.959,17.933 92.07,-9.78l3.74,-5.153c13.788,-18.999 14.484,-45.017 1.796,-67.199c-4.75,-8.297 1.838,-17.375 11.199,-15.431c25.022,5.185 49.542,-3.544 63.33,-22.544l3.739,-5.152c20.111,-27.714 11.494,-68.254 -19.242,-90.56c-23.958,-17.386 -55.252,-18.998 -77.696,-4.016c-17.018,11.363 -30.773,24.146 -50.608,9.752l-204.914,-148.707c-20.487,-14.867 -11.129,-34.373 -6.421,-51.138c7.285,-25.983 -3.958,-55.24 -27.909,-72.621c-30.736,-22.305 -71.951,-17.928 -92.062,9.786l-3.74,5.152c-13.792,19.006 -14.484,45.018 -1.796,67.199c4.743,8.292 -1.845,17.37 -11.206,15.426Z" style="fill:#0b5143;fill-rule:nonzero;"/><path d="M6282.45,2956.98c23.771,9.377 49.421,4.957 66.247,-11.412l4.563,-4.44c24.544,-23.877 22.967,-65.293 -3.521,-92.521c-20.642,-21.218 -51.202,-28.143 -75.872,-17.208c-18.707,8.293 -34.441,18.544 -51.53,0.977l-176.55,-181.477c-17.651,-18.143 -5.103,-35.767 2.395,-51.483c11.616,-24.354 5.528,-55.099 -15.108,-76.31c-26.488,-27.228 -67.845,-29.944 -92.389,-6.067l-4.563,4.44c-16.826,16.369 -21.95,41.887 -13.231,65.908c3.266,8.985 -4.774,16.807 -13.666,13.295c-23.772,-9.377 -49.421,-4.957 -66.247,11.412l-4.564,4.44c-24.543,23.877 -22.967,65.293 3.515,92.514c20.642,21.218 51.202,28.144 75.872,17.208c18.707,-8.293 34.441,-18.543 51.53,-0.977l176.55,181.477c17.651,18.143 5.103,35.767 -2.395,51.484c-11.61,24.36 -5.521,55.105 15.114,76.316c26.482,27.221 67.84,29.937 92.383,6.06l4.563,-4.44c16.832,-16.375 21.95,-41.887 13.231,-65.907c-3.259,-8.979 4.781,-16.801 13.673,-13.289Z" style="fill:#0b5143;fill-rule:nonzero;"/><path d="M3978.93,4610.89c-8.028,24.26 -2.176,49.621 15.112,65.502l4.689,4.307c25.216,23.165 66.479,19.267 92.177,-8.708c20.026,-21.8 25.226,-52.7 12.923,-76.718c-9.33,-18.212 -20.447,-33.345 -3.867,-51.394l171.283,-186.456c17.124,-18.641 35.424,-7.102 51.537,-0.498c24.967,10.231 55.322,2.427 75.342,-19.366c25.698,-27.975 26.089,-69.419 0.872,-92.584l-4.689,-4.307c-17.288,-15.881 -43.053,-19.565 -66.546,-9.511c-8.788,3.764 -17.049,-3.824 -14.042,-12.899c8.028,-24.26 2.176,-49.621 -15.112,-65.502l-4.688,-4.307c-25.217,-23.165 -66.479,-19.267 -92.172,8.701c-20.025,21.8 -25.225,52.7 -12.923,76.718c9.33,18.212 20.448,33.346 3.868,51.394l-171.283,186.456c-17.124,18.641 -35.425,7.102 -51.537,0.498c-24.974,-10.224 -55.329,-2.42 -75.348,19.373c-25.693,27.968 -26.083,69.413 -0.866,92.577l4.689,4.307c17.294,15.887 43.053,19.565 66.546,9.512c8.782,-3.758 17.042,3.83 14.035,12.905Z" style="fill:#0b5143;fill-rule:nonzero;"/><path d="M8236.86,1176.54c25.548,0.538 48.066,-12.514 58.161,-33.707l2.737,-5.748c14.724,-30.915 -1.136,-69.206 -35.432,-85.541c-26.725,-12.729 -57.788,-8.611 -77.126,10.211c-14.662,14.274 -25.857,29.35 -47.984,18.811l-228.583,-108.872c-22.853,-10.885 -17.206,-31.77 -15.633,-49.112c2.436,-26.872 -13.95,-53.589 -40.667,-66.314c-34.295,-16.335 -74.022,-4.52 -88.746,26.395l-2.738,5.748c-10.094,21.193 -6.038,46.903 10.48,66.4c6.183,7.293 1.36,17.419 -8.198,17.214c-25.549,-0.538 -48.067,12.514 -58.161,33.708l-2.738,5.748c-14.724,30.914 1.137,69.205 35.424,85.536c26.725,12.729 57.788,8.611 77.126,-10.211c14.662,-14.273 25.857,-29.35 47.983,-18.811l228.584,108.873c22.852,10.884 17.206,31.769 15.633,49.111c-2.428,26.876 13.958,53.594 40.675,66.319c34.287,16.33 74.014,4.515 88.738,-26.399l2.738,-5.748c10.098,-21.202 6.037,-46.904 -10.481,-66.401c-6.174,-7.288 -1.351,-17.415 8.208,-17.21Z" style="fill:#0b5143;fill-rule:nonzero;"/></svg>